#N canvas 613 195 450 300 12;
#X obj 148 254 dac~ 1 2;
#X obj 148 68 random 12;
#X obj 152 10 tgl 15 0 empty empty empty 17 7 0 10 #fcfcfc #000000
#000000 0 1;
#X obj 148 128 mtof;
#X obj 150 155 osc~;
#X obj 149 187 *~;
#X obj 257 163 line~;
#X obj 147 93 + 54;
#X obj 286 89 delay 100;
#X msg 286 112 0 200;
#X msg 256 140 0 \, 0.25 30;
#X obj 149 39 metro 500;
#X obj 20 59 loadbang;
#X obj 290 272 print note;
#X connect 1 0 7 0;
#X connect 2 0 11 0;
#X connect 3 0 4 0;
#X connect 4 0 5 0;
#X connect 5 0 0 0;
#X connect 5 0 0 1;
#X connect 6 0 5 1;
#X connect 7 0 3 0;
#X connect 7 0 13 0;
#X connect 8 0 9 0;
#X connect 9 0 6 0;
#X connect 10 0 6 0;
#X connect 11 0 1 0;
#X connect 11 0 10 0;
#X connect 11 0 8 0;
#X connect 12 0 2 0;
