#N canvas 332 149 936 697 12;
#X declare -lib fluid_libmanipulation;
#X obj 134 220 unpack f f;
#X floatatom 134 256 8 0 0 0 - - - 0;
#X floatatom 201 282 5 0 0 0 - - - 0;
#X text 88 256 pitch, f 6;
#X text 120 282 confidence, f 11;
#X obj 134 196 fluid.pitch~;
#X obj 64 358 *~ 0.1;
#N canvas 440 25 550 799 parameters 0;
#X floatatom 29 499 8 0 0 0 - - - 0;
#X floatatom 29 259 8 0 0 0 - - - 0;
#X floatatom 197 499 8 0 0 0 - - - 0;
#X floatatom 252 199 7 0 0 0 - - - 0;
#X msg 252 167 1024;
#X obj 252 145 loadbang;
#X msg 29 280 algorithm \$1;
#X obj 29 730 r \$0-params;
#X obj 29 753 outlet;
#X obj 29 302 s \$0-params;
#X text 28 6 Optional parameters to fluid.noveltyslice~;
#X obj 29 564 s \$0-params;
#X obj 197 564 s \$0-params;
#X obj 104 145 loadbang;
#X obj 197 456 bng 15 250 50 0 empty empty empty 17 7 0 10 #fcfcfc
#000000 #000000;
#X obj 197 415 loadbang;
#X obj 29 456 bng 15 250 50 0 empty empty empty 17 7 0 10 #fcfcfc #000000
#000000;
#X obj 29 415 loadbang;
#X obj 252 302 s \$0-params;
#X obj 248 74 cnv 10 270 2 empty empty empty 20 12 0 14 #bbbbbb #404040
0;
#X text 246 54 FFT settings;
#X obj 28 74 cnv 10 200 2 empty empty empty 20 12 0 14 #bbbbbb #404040
0;
#X text 26 54 Algorithm;
#X obj 29 191 vradio 15 1 0 3 empty empty Algorithm 0 -8 0 10 #fcfcfc
#000000 #000000 0;
#X obj 189 384 cnv 10 140 2 empty empty empty 20 12 0 14 #bbbbbb #404040
0;
#X obj 29 384 cnv 10 140 2 empty empty empty 20 12 0 14 #bbbbbb #404040
0;
#X obj 349 384 cnv 10 140 2 empty empty empty 20 12 0 14 #bbbbbb #404040
0;
#X obj 349 564 s \$0-params;
#X obj 419 427 loadbang;
#X text 246 86 If latency is no issue \, higher window size will give
more precise results., f 37;
#X text 27 364 minimum frequency;
#X text 187 364 maximum frequency;
#X text 347 364 unit;
#X text 47 190 0: Cepstrum;
#X text 47 205 1: Harmonic Product Spectrum;
#X text 47 220 2: YinFFT;
#X msg 104 167 2;
#X text 26 87 The most reliable algorithm is 2 (default), f 25;
#X msg 252 280 fftsettings \$1 -1 -1;
#X msg 29 537 minfreq \$1;
#X msg 29 477 20;
#X msg 197 537 maxfreq \$1;
#X msg 197 477 10000;
#X msg 349 537 unit \$1;
#X obj 349 477 vradio 15 1 0 2 empty empty Units 0 -8 0 10 #fcfcfc
#000000 #000000 0;
#X text 367 476 0: Hz;
#X text 367 495 1: MIDI pitch;
#X msg 419 451 0;
#X connect 0 0 39 0;
#X connect 1 0 6 0;
#X connect 2 0 41 0;
#X connect 3 0 38 0;
#X connect 4 0 3 0;
#X connect 5 0 4 0;
#X connect 6 0 9 0;
#X connect 7 0 8 0;
#X connect 13 0 36 0;
#X connect 14 0 42 0;
#X connect 15 0 14 0;
#X connect 16 0 40 0;
#X connect 17 0 16 0;
#X connect 23 0 1 0;
#X connect 28 0 47 0;
#X connect 36 0 23 0;
#X connect 38 0 18 0;
#X connect 39 0 11 0;
#X connect 40 0 0 0;
#X connect 41 0 12 0;
#X connect 42 0 2 0;
#X connect 43 0 27 0;
#X connect 44 0 43 0;
#X connect 47 0 44 0;
#X restore 228 132 pd parameters;
#X obj 64 393 dac~;
#X obj 56 51 declare -lib fluid_libmanipulation;
#X obj 366 366 print pitch;
#X obj 449 368 print conf;
#X obj 90 111 osc~ 220;
#X obj 403 328 f;
#X obj 362 37 loadbang;
#X msg 361 61 1;
#X obj 354 319 f;
#X obj 361 84 metro 250;
#X obj 433 162 random 12;
#X obj 433 184 + 64;
#X obj 433 209 mtof;
#X connect 0 0 1 0;
#X connect 0 0 16 1;
#X connect 0 1 2 0;
#X connect 0 1 13 1;
#X connect 5 0 0 0;
#X connect 6 0 8 0;
#X connect 6 0 8 1;
#X connect 7 0 5 0;
#X connect 12 0 5 0;
#X connect 12 0 6 0;
#X connect 13 0 11 0;
#X connect 14 0 15 0;
#X connect 15 0 17 0;
#X connect 16 0 10 0;
#X connect 17 0 18 0;
#X connect 17 0 16 0;
#X connect 17 0 13 0;
#X connect 18 0 19 0;
#X connect 19 0 20 0;
#X connect 20 0 12 0;
