#N canvas 559 237 790 798 12;
#X obj 17 41 oscparse;
#X obj 17 17 netreceive -u -b 9999;
#X obj 18 65 list trim;
#X obj 18 88 route flow;
#X obj 174 206 print;
#X obj 22 237 dac~;
#X obj 59 141 list store;
#X obj 19 116 list split 3;
#X obj 21 179 clone sinOsc 8;
#X obj 21 204 limiter;
#X connect 0 0 2 0;
#X connect 1 0 0 0;
#X connect 2 0 3 0;
#X connect 3 0 7 0;
#X connect 6 0 7 0;
#X connect 7 0 8 0;
#X connect 7 1 6 0;
#X connect 8 0 9 0;
#X connect 9 0 5 0;
#X connect 9 0 5 1;
