#N canvas 121 146 450 300 12;
#X obj 82 22 inlet~;
#X obj 82 44 *~ 0.5;
#X obj 82 66 expr~ tanh($v1);
#X obj 82 90 hip~ 5;
#X obj 82 114 *~ 0.5;
#X obj 82 138 outlet~;
#X connect 0 0 1 0;
#X connect 1 0 2 0;
#X connect 2 0 3 0;
#X connect 3 0 4 0;
#X connect 4 0 5 0;
