#N canvas 274 397 450 426 12;
#X obj 118 275 osc~;
#X obj 118 198 sig~;
#X obj 55 64 > 0.1;
#X obj 119 125 spigot;
#X obj 55 88 change;
#X obj 118 326 *~;
#X obj 57 127 sig~;
#X obj 55 5 inlet;
#X obj 118 373 outlet~;
#X obj 55 31 unpack f f;
#X obj 57 152 lop~ 1;
#X obj 118 350 *~ 0.1;
#X obj 119 152 ftom;
#X obj 118 175 mtof;
#X obj 213 140 loadbang;
#X obj 213 171 float \$1;
#X obj 213 194 +~ 1;
#X obj 118 221 *~, f 14;
#X obj 118 244 +~ 40;
#X connect 0 0 5 0;
#X connect 1 0 17 0;
#X connect 2 0 4 0;
#X connect 3 0 12 0;
#X connect 4 0 3 1;
#X connect 4 0 6 0;
#X connect 5 0 11 0;
#X connect 6 0 10 0;
#X connect 7 0 9 0;
#X connect 9 0 2 0;
#X connect 9 1 3 0;
#X connect 10 0 5 1;
#X connect 11 0 8 0;
#X connect 12 0 13 0;
#X connect 13 0 1 0;
#X connect 14 0 15 0;
#X connect 15 0 16 0;
#X connect 16 0 17 1;
#X connect 17 0 18 0;
#X connect 18 0 0 0;
